<svg xmlns="http://www.w3.org/2000/svg" xmlns:xlink="http://www.w3.org/1999/xlink" fill="none" version="1.1" width="32" height="32" viewBox="0 0 32 32"><defs><filter id="master_svg0_2_11598/2_19314/3_020101" filterUnits="objectBoundingBox" color-interpolation-filters="sRGB" x="0" y="0" width="1" height="1"><feFlood flood-opacity="0" result="BackgroundImageFix"/><feBlend mode="normal" in="SourceGraphic" in2="BackgroundImageFix" result="shape"/><feColorMatrix in="SourceAlpha" type="matrix" result="hardAlpha" values="0 0 0 0 0 0 0 0 0 0 0 0 0 0 0 0 0 0 127 0"/><feOffset dy="-4" dx="0"/><feGaussianBlur stdDeviation="4"/><feComposite in2="hardAlpha" operator="arithmetic" k2="-1" k3="1"/><feColorMatrix type="matrix" values="0 0 0 0 1 0 0 0 0 1 0 0 0 0 1 0 0 0 0.6399999856948853 0"/><feBlend mode="normal" in2="shape" result="effect1_innerShadow"/></filter><clipPath id="master_svg1_2_11598/2_19314/3_020101"><rect x="0" y="0" width="32" height="32" rx="16"/></clipPath><linearGradient x1="0.5" y1="0" x2="0.5000000596046448" y2="1.5163549184799194" id="master_svg2_2_01483"><stop offset="0%" stop-color="#FFFFFF" stop-opacity="1"/><stop offset="31.307867169380188%" stop-color="#FFFFFF" stop-opacity="1"/><stop offset="100%" stop-color="#FFFFFF" stop-opacity="0"/></linearGradient><linearGradient x1="2.265092372894287" y1="-2.427119255065918" x2="0.8433780074119567" y2="1.8340857028961182" id="master_svg3_2_5119"><stop offset="0%" stop-color="#FFFFFF" stop-opacity="1"/><stop offset="100%" stop-color="#FFFFFF" stop-opacity="0"/></linearGradient><filter id="master_svg4_2_11598/2_19314/3_020101/2_01488" filterUnits="objectBoundingBox" color-interpolation-filters="sRGB" x="-0.6777050178240962" y="0" width="1.9036066904321283" height="2.0165562576842113"><feFlood flood-opacity="0" result="BackgroundImageFix"/><feColorMatrix in="SourceAlpha" type="matrix" values="0 0 0 0 0 0 0 0 0 0 0 0 0 0 0 0 0 0 127 0"/><feOffset dy="5.55555534362793" dx="-2.222222089767456"/><feGaussianBlur stdDeviation="1.111111044883728"/><feColorMatrix type="matrix" values="0 0 0 0 0.17280012369155884 0 0 0 0 0.787199854850769 0 0 0 0 0.27333828806877136 0 0 0 0.3199999928474426 0"/><feBlend mode="normal" in2="BackgroundImageFix" result="effect1_dropShadow"/><feBlend mode="normal" in="SourceGraphic" in2="effect1_dropShadow" result="shape"/></filter><linearGradient x1="0.5" y1="0" x2="0.5000000596044946" y2="1.5163549184799194" id="master_svg5_2_01406"><stop offset="0%" stop-color="#FFFFFF" stop-opacity="1"/><stop offset="31.307867169380188%" stop-color="#FFFFFF" stop-opacity="1"/><stop offset="100%" stop-color="#FFFFFF" stop-opacity="0"/></linearGradient><linearGradient x1="2.265092372894287" y1="-2.427119255065918" x2="0.843381232038147" y2="1.834086778762186" id="master_svg6_2_5119"><stop offset="0%" stop-color="#FFFFFF" stop-opacity="1"/><stop offset="100%" stop-color="#FFFFFF" stop-opacity="0"/></linearGradient><filter id="master_svg7_2_11598/2_19314/3_020101/2_01485" filterUnits="objectBoundingBox" color-interpolation-filters="sRGB" x="-0.22590127840199895" y="0" width="1.903605113607996" height="2.0165562576842113"><feFlood flood-opacity="0" result="BackgroundImageFix"/><feColorMatrix in="SourceAlpha" type="matrix" values="0 0 0 0 0 0 0 0 0 0 0 0 0 0 0 0 0 0 127 0"/><feOffset dy="5.55555534362793" dx="2.222222089767456"/><feGaussianBlur stdDeviation="1.111111044883728"/><feColorMatrix type="matrix" values="0 0 0 0 0.17280012369155884 0 0 0 0 0.787199854850769 0 0 0 0 0.27333828806877136 0 0 0 0.3199999928474426 0"/><feBlend mode="normal" in2="BackgroundImageFix" result="effect1_dropShadow"/><feBlend mode="normal" in="SourceGraphic" in2="effect1_dropShadow" result="shape"/></filter><linearGradient x1="0.5" y1="0" x2="0.5000000596047025" y2="1.5163549184799194" id="master_svg8_2_01406"><stop offset="0%" stop-color="#FFFFFF" stop-opacity="1"/><stop offset="31.307867169380188%" stop-color="#FFFFFF" stop-opacity="1"/><stop offset="100%" stop-color="#FFFFFF" stop-opacity="0"/></linearGradient><linearGradient x1="2.265092372894287" y1="-2.427119255065918" x2="0.8433767671708994" y2="1.8340852890999608" id="master_svg9_2_5119"><stop offset="0%" stop-color="#FFFFFF" stop-opacity="1"/><stop offset="100%" stop-color="#FFFFFF" stop-opacity="0"/></linearGradient><linearGradient x1="0.5" y1="0" x2="0.5000000596046448" y2="1.5163549184799194" id="master_svga_2_01406"><stop offset="0%" stop-color="#FFFFFF" stop-opacity="1"/><stop offset="31.307867169380188%" stop-color="#FFFFFF" stop-opacity="1"/><stop offset="100%" stop-color="#FFFFFF" stop-opacity="0"/></linearGradient><linearGradient x1="2.265092372894287" y1="-2.427119255065918" x2="0.8433780074119567" y2="1.8340857028961182" id="master_svgb_2_5119"><stop offset="0%" stop-color="#FFFFFF" stop-opacity="1"/><stop offset="100%" stop-color="#FFFFFF" stop-opacity="0"/></linearGradient><linearGradient x1="0.5" y1="0" x2="0.5000000596048528" y2="1.5163549184799194" id="master_svgc_2_01406"><stop offset="0%" stop-color="#FFFFFF" stop-opacity="1"/><stop offset="31.307867169380188%" stop-color="#FFFFFF" stop-opacity="1"/><stop offset="100%" stop-color="#FFFFFF" stop-opacity="0"/></linearGradient><linearGradient x1="2.265092372894287" y1="-2.427119255065918" x2="0.8433735425379639" y2="1.8340842132241328" id="master_svgd_2_5119"><stop offset="0%" stop-color="#FFFFFF" stop-opacity="1"/><stop offset="100%" stop-color="#FFFFFF" stop-opacity="0"/></linearGradient></defs><g filter="url(#master_svg0_2_11598/2_19314/3_020101)"><g clip-path="url(#master_svg1_2_11598/2_19314/3_020101)"><rect x="0" y="0" width="32" height="32" rx="16" fill="#38C793" fill-opacity="1"/><rect x="0" y="0" width="32" height="32" rx="16" fill="#FFFFFF" fill-opacity="0.10000000149011612"/><path d="M12.577597618103027,15.999903640734864C14.056264418103027,15.261077140734862,15.261331318103027,14.056010740734862,16.000104618103027,12.577343940734863C16.738931618103027,14.056010740734862,17.943944418103026,15.261077140734862,19.422664618103028,15.999903640734864C17.943944418103026,16.738677040734864,16.738931618103027,17.943744140734864,16.000104618103027,19.422410940734864C15.261331318103027,17.943744140734864,14.056264418103027,16.738677040734864,12.577597618103027,15.999903640734864Z" fill="url(#master_svg2_2_01483)" fill-opacity="1"/><path d="M15.403271918103027,18.426020140734863C14.901843118103027,17.717441540734864,14.282566518103028,17.09816554073486,13.573988198103027,16.596736440734865C13.258700428103028,16.373621440734862,12.925731988103028,16.173839140734863,12.577597618103027,15.999903640734864C12.925728168103028,15.825957740734864,13.258693158103027,15.626168240734863,13.573977828103027,15.403049040734864C14.282560718103028,14.901602240734864,14.901840918103026,14.282318240734863,15.403272418103027,13.573734700734864C15.626387118103027,13.258446390734864,15.826169518103027,12.925478160734864,16.000104618103027,12.577343940734863C16.174051518103028,12.925476340734864,16.373839418103028,13.258442940734863,16.596956218103028,13.573729750734863C17.098397218103027,14.282316940734864,17.71767191810303,14.901603940734864,18.426266218103027,15.403052340734863C18.741552818103028,15.626170140734864,19.07452301810303,15.825958440734864,19.422664618103028,15.999903640734864C19.074519618103025,16.173838140734862,18.741546118103027,16.373619540734865,18.426256218103028,16.596733140734862C17.717666118103025,17.098163640734864,17.098395318103027,17.717442940734863,16.596956718103026,18.426025340734864C16.37383981810303,18.741311540734863,16.174051718103026,19.074278340734864,16.000104618103027,19.422410940734864C15.826169218103027,19.074276440734863,15.626386918103027,18.741307740734864,15.403271918103027,18.426020140734863ZM16.000121618103027,17.537118440734865Q15.333372818103028,16.666632140734862,14.462887918103027,15.999885040734863Q15.333375918103027,15.333118640734863,16.000120618103026,14.462636940734864Q16.66688391810303,15.333130340734863,17.537358318103028,15.999884140734864Q16.66688631810303,16.666621240734862,16.000121618103027,17.537118440734865Z" fill-rule="evenodd" fill="url(#master_svg3_2_5119)" fill-opacity="1"/><g filter="url(#master_svg4_2_11598/2_19314/3_020101/2_01488)"><path d="M26.637280454345703,15.200067512548829C26.247733154345703,9.946771112548827,22.053439654345702,5.752445702548828,16.800159454345703,5.362934112548828C16.800159454345703,5.362934112548828,16.800159454345703,9.173384412548828,16.800159454345703,9.173384412548828C16.800159454345703,12.501827212548829,19.498346854345705,15.200067512548829,22.826827054345703,15.200067512548829C22.826827054345703,15.200067512548829,26.637280454345703,15.200067512548829,26.637280454345703,15.200067512548829Z" fill="url(#master_svg5_2_01406)" fill-opacity="0.800000011920929"/><path d="M26.637280454345703,15.200067512548829C26.612219854345703,14.862107312548828,26.571412054345704,14.528531112548828,26.515588754345703,14.200067512548829C25.759510954345703,9.751316112548828,22.248894654345705,6.240675032548828,17.800159454345703,5.484620022548828C17.471696374345704,5.428798280548828,17.138119374345703,5.387992609548828,16.800159454345703,5.362934112548828L16.800159454345703,9.173384412548828C16.800159454345703,12.501827212548829,19.498346854345705,15.200067512548829,22.826827054345703,15.200067512548829L26.637280454345703,15.200067512548829ZM22.8355116543457,9.164686912548827Q24.9845838543457,11.313766912548829,25.504724454345705,14.200067512548829L22.826827554345705,14.200067512548829Q20.744690854345702,14.200067512548829,19.272422554345702,12.727788012548828Q17.800159454345703,11.255513212548827,17.800159454345703,9.173384712548827L17.800159454345703,6.495481712548829Q20.686438354345704,7.015606012548828,22.8355116543457,9.164686912548827Z" fill-rule="evenodd" fill="url(#master_svg6_2_5119)" fill-opacity="1"/></g><g filter="url(#master_svg7_2_11598/2_19314/3_020101/2_01485)"><path d="M15.200163388446045,5.362934112548828C9.946862188446044,5.752445702548828,5.752536598446045,9.946771112548827,5.363025188446045,15.200067512548829C5.363025188446045,15.200067512548829,9.173476488446045,15.200067512548829,9.173476488446045,15.200067512548829C12.501924488446045,15.200067512548829,15.200163388446045,12.501827212548829,15.200163388446045,9.173384412548828C15.200163388446045,9.173384412548828,15.200163388446045,5.362934112548828,15.200163388446045,5.362934112548828Z" fill="url(#master_svg8_2_01406)" fill-opacity="0.800000011920929"/><path d="M15.200163388446045,5.362934112548828C14.862203088446044,5.387992503548828,14.528626888446045,5.4287979305488285,14.200163388446045,5.484619312548828C9.751406688446046,6.240672882548828,6.240764318446045,9.751314612548828,5.484710508446045,14.200067512548829C5.428889058446045,14.528531112548828,5.388083588446045,14.862107312548828,5.363025188446045,15.200067512548829L9.173476488446045,15.200067512548829C12.501924488446045,15.200067512548829,15.200163388446045,12.501827212548829,15.200163388446045,9.173384412548828L15.200163388446045,5.362934112548828ZM9.164779688446044,9.164688312548828Q11.313862788446045,7.015605912548828,14.200163388446045,6.4954829125488285L14.200163388446045,9.173384912548828Q14.200163388446045,11.255503612548829,12.727881388446045,12.727785112548828Q11.255598088446046,14.200067512548829,9.173476488446045,14.200067512548829L6.495574188446045,14.200067512548829Q7.0156973884460445,11.31377031254883,9.164779688446044,9.164688312548828Z" fill-rule="evenodd" fill="url(#master_svg9_2_5119)" fill-opacity="1"/></g><path d="M26.637280454345703,16.80000114440918C26.637280454345703,16.80000114440918,22.826827054345703,16.80000114440918,22.826827054345703,16.80000114440918C19.498346854345705,16.80000114440918,16.800159454345703,19.49824194440918,16.800159454345703,22.82666874440918C16.800159454345703,22.82666874440918,16.800159454345703,26.63712214440918,16.800159454345703,26.63712214440918C22.053439654345702,26.24757484440918,26.247733154345703,22.05328134440918,26.637280454345703,16.80000114440918Z" fill="url(#master_svga_2_01406)" fill-opacity="0.800000011920929"/><path d="M22.826827054345703,16.80000114440918L26.637280454345703,16.80000114440918C26.612219854345703,17.13796106440918,26.571412054345704,17.47153806440918,26.515588754345703,17.80000114440918C25.759510054345704,22.248735444409178,22.2488937543457,25.75935174440918,17.800159454345703,26.51543044440918C17.471696374345704,26.57125374440918,17.138119374345703,26.61206154440918,16.800159454345703,26.63712214440918L16.800159454345703,22.82666874440918C16.800159454345703,19.49824194440918,19.498346854345705,16.80000114440918,22.826827054345703,16.80000114440918ZM22.826827054345703,17.80000114440918L25.504723554345702,17.80000114440918Q24.984582854345703,20.68628664440918,22.835513554345702,22.835355744409178Q20.686444954345703,24.98442454440918,17.800159274345702,25.50456524440918L17.800158854345703,22.82666874440918Q17.800158794345702,20.74455144440918,19.2724218543457,19.27227974440918Q20.744691654345704,17.80000114440918,22.826827054345703,17.80000114440918Z" fill-rule="evenodd" fill="url(#master_svgb_2_5119)" fill-opacity="1"/><path d="M15.200163388446045,26.63712214440918C15.200163388446045,26.63712214440918,15.200163388446045,22.82666874440918,15.200163388446045,22.82666874440918C15.200163388446045,19.49824194440918,12.501924488446045,16.80000114440918,9.173476488446045,16.80000114440918C9.173476488446045,16.80000114440918,5.363025188446045,16.80000114440918,5.363025188446045,16.80000114440918C5.752536598446045,22.05328134440918,9.946862188446044,26.24757484440918,15.200163388446045,26.63712214440918Z" fill="url(#master_svgc_2_01406)" fill-opacity="0.800000011920929"/><path d="M15.200163388446045,26.63712214440918L15.200163388446045,22.82666874440918C15.200163388446045,19.49824194440918,12.501924488446045,16.80000114440918,9.173476488446045,16.80000114440918L5.363025188446045,16.80000114440918C5.388083672446045,17.13796106440918,5.428889334446045,17.47153806440918,5.484711068446045,17.80000114440918C6.240766048446045,22.24873684440918,9.751408088446045,25.75935364440918,14.200163388446045,26.51543044440918C14.528626888446045,26.57125374440918,14.862203088446044,26.61206154440918,15.200163388446045,26.63712214440918ZM14.200163388446045,22.82666874440918L14.200163388446045,25.504566144409182Q11.313857988446046,24.98442654440918,9.164778688446045,22.83535384440918Q7.0156989884460454,20.68628094440918,6.495575088446045,17.80000114440918L9.173474788446045,17.80000114440918Q11.255596588446044,17.80000134440918,12.727881388446045,19.27228264440918Q14.200163388446045,20.74456144440918,14.200163388446045,22.82666874440918Z" fill-rule="evenodd" fill="url(#master_svgd_2_5119)" fill-opacity="1"/></g></g></svg>