<svg xmlns="http://www.w3.org/2000/svg" width="726" height="497" fill="none"><g clip-path="url(#a)" opacity=".8"><mask id="c" width="726" height="497" x="0" y="0" maskUnits="userSpaceOnUse" style="mask-type:alpha"><path fill="url(#b)" d="M725.354 0H0v496.871h725.354V0Z"/></mask><g stroke="#fff" mask="url(#c)"><path d="M4.247 356.582h-71.656v54.055H4.247v-54.055Zm71.66 0H4.25v54.055h71.656v-54.055Zm71.658 0H75.909v54.055h71.656v-54.055Z"/><path d="M219.22 356.582h-71.656v54.055h71.656v-54.055Zm71.658 0h-71.656v54.055h71.656v-54.055Zm71.659 0h-71.656v54.055h71.656v-54.055Zm71.66 0h-71.656v54.055h71.656v-54.055Zm71.658 0h-71.656v54.055h71.656v-54.055Zm71.658 0h-71.656v54.055h71.656v-54.055Z"/><path d="M649.168 356.582h-71.656v54.055h71.656v-54.055Zm71.66 0h-71.656v54.055h71.656v-54.055Zm71.658 0H720.83v54.055h71.656v-54.055ZM4.247 410.623h-71.656v54.056H4.247v-54.056Zm0-432.331h-71.656v54.055H4.247v-54.055Zm71.66 432.331H4.25v54.056h71.656v-54.056Zm0-432.331H4.25v54.055h71.656v-54.055Zm71.658 432.331H75.909v54.056h71.656v-54.056Zm0-432.331H75.909v54.055h71.656v-54.055Z"/><path d="M219.22 410.623h-71.656v54.056h71.656v-54.056Zm0-432.331h-71.656v54.055h71.656v-54.055Zm71.658 432.331h-71.656v54.056h71.656v-54.056Zm0-432.331h-71.656v54.055h71.656v-54.055Zm71.659 432.331h-71.656v54.056h71.656v-54.056Zm0-432.331h-71.656v54.055h71.656v-54.055Zm71.66 432.331h-71.656v54.056h71.656v-54.056Zm0-432.331h-71.656v54.055h71.656v-54.055Zm71.658 432.331h-71.656v54.056h71.656v-54.056Zm0-432.331h-71.656v54.055h71.656v-54.055Zm71.658 432.331h-71.656v54.056h71.656v-54.056Zm0-432.331h-71.656v54.055h71.656v-54.055Zm71.657 432.331h-71.656v54.056h71.656v-54.056Z"/><path d="M649.168-21.708h-71.656v54.055h71.656v-54.055Zm71.66 432.331h-71.656v54.056h71.656v-54.056Zm0-432.331h-71.656v54.055h71.656v-54.055Zm71.658 432.331H720.83v54.056h71.656v-54.056Zm0-432.331H720.83v54.055h71.656v-54.055ZM4.247 464.665h-71.656v54.055H4.247v-54.055Zm0-432.331h-71.656v54.055H4.247V32.334Zm71.66 432.329H4.25v54.056h71.656v-54.056Zm0-432.329H4.25v54.055h71.656V32.334Zm71.658 432.329H75.909v54.056h71.656v-54.056Zm0-432.329H75.909v54.055h71.656V32.334Z"/><path d="M219.22 464.663h-71.656v54.056h71.656v-54.056Zm0-432.329h-71.656v54.055h71.656V32.334Zm71.658 432.329h-71.656v54.056h71.656v-54.056Zm0-432.329h-71.656v54.055h71.656V32.334Zm71.659 432.329h-71.656v54.056h71.656v-54.056Zm0-432.329h-71.656v54.055h71.656V32.334Zm71.66 432.329h-71.656v54.056h71.656v-54.056Zm0-432.329h-71.656v54.055h71.656V32.334Zm71.658 432.329h-71.656v54.056h71.656v-54.056Zm0-432.329h-71.656v54.055h71.656V32.334Zm71.658 432.329h-71.656v54.056h71.656v-54.056Zm0-432.329h-71.656v54.055h71.656V32.334Zm71.657 432.331h-71.656v54.055h71.656v-54.055Z"/><path d="M649.168 32.334h-71.656v54.055h71.656V32.334Zm71.66 432.331h-71.656v54.055h71.656v-54.055Zm0-432.331h-71.656v54.055h71.656V32.334Zm71.658 432.329H720.83v54.056h71.656v-54.056Zm0-432.329H720.83v54.055h71.656V32.334ZM4.247 86.375h-71.656v54.056H4.247V86.375Zm71.66-.001H4.25v54.055h71.656V86.374Zm71.658 0H75.909v54.055h71.656V86.374Z"/><path d="M219.22 86.374h-71.656v54.055h71.656V86.374Zm71.658 0h-71.656v54.055h71.656V86.374Zm71.659 0h-71.656v54.055h71.656V86.374Zm71.66 0h-71.656v54.055h71.656V86.374Zm71.658 0h-71.656v54.055h71.656V86.374Zm71.658 0h-71.656v54.055h71.656V86.374Zm71.657.001h-71.656v54.056h71.656V86.375Zm71.658 0h-71.656v54.056h71.656V86.375Zm71.658-.001H720.83v54.055h71.656V86.374ZM4.247 140.417h-71.656v54.055H4.247v-54.055Zm71.66 0H4.25v54.055h71.656v-54.055Z"/><path d="M147.565 140.417H75.909v54.055h71.656v-54.055Z"/><path d="M219.22 140.417h-71.656v54.055h71.656v-54.055Zm71.658 0h-71.656v54.055h71.656v-54.055Zm71.659 0h-71.656v54.055h71.656v-54.055Zm71.66 0h-71.656v54.055h71.656v-54.055Zm71.658 0h-71.656v54.055h71.656v-54.055Zm71.658 0h-71.656v54.055h71.656v-54.055Z"/><path d="M649.168 140.417h-71.656v54.055h71.656v-54.055Zm71.66 0h-71.656v54.055h71.656v-54.055Zm71.658 0H720.83v54.055h71.656v-54.055ZM4.247 194.457h-71.656v54.055H4.247v-54.055Zm71.66 0H4.25v54.055h71.656v-54.055Zm71.658 0H75.909v54.055h71.656v-54.055Z"/><path d="M219.22 194.457h-71.656v54.055h71.656v-54.055Zm71.658 0h-71.656v54.055h71.656v-54.055Zm71.659 0h-71.656v54.055h71.656v-54.055Zm71.66 0h-71.656v54.055h71.656v-54.055Zm71.658 0h-71.656v54.055h71.656v-54.055Zm71.658 0h-71.656v54.055h71.656v-54.055Z"/><path d="M649.168 194.457h-71.656v54.055h71.656v-54.055Zm71.66.001h-71.656v54.056h71.656v-54.056Zm71.658-.001H720.83v54.055h71.656v-54.055ZM4.247 248.5h-71.656v54.055H4.247V248.5Zm71.66 0H4.25v54.055h71.656V248.5Zm71.658 0H75.909v54.055h71.656V248.5Z"/><path d="M219.22 248.5h-71.656v54.055h71.656V248.5Zm71.658 0h-71.656v54.055h71.656V248.5Zm71.659 0h-71.656v54.055h71.656V248.5Zm71.66 0h-71.656v54.055h71.656V248.5Zm71.658 0h-71.656v54.055h71.656V248.5Zm71.658 0h-71.656v54.055h71.656V248.5Zm71.657 0h-71.656v54.055h71.656V248.5Zm71.658 0h-71.656v54.055h71.656V248.5Zm71.658 0H720.83v54.055h71.656V248.5ZM4.247 302.54h-71.656v54.055H4.247V302.54Zm71.66 0H4.25v54.055h71.656V302.54Z"/><path d="M147.565 302.54H75.909v54.055h71.656V302.54Z"/><path d="M219.22 302.54h-71.656v54.055h71.656V302.54Zm71.658 0h-71.656v54.055h71.656V302.54Zm71.659 0h-71.656v54.055h71.656V302.54Zm71.66 0h-71.656v54.055h71.656V302.54Zm71.658 0h-71.656v54.055h71.656V302.54Zm71.658 0h-71.656v54.055h71.656V302.54Z"/><path d="M649.168 302.54h-71.656v54.055h71.656V302.54Zm71.66 0h-71.656v54.055h71.656V302.54Zm71.658 0H720.83v54.055h71.656V302.54Z"/></g></g><defs><radialGradient id="b" cx="0" cy="0" r="1" gradientTransform="matrix(0 660.597 -964.368 0 362.602 248.384)" gradientUnits="userSpaceOnUse"><stop stop-color="#fff" stop-opacity=".46"/><stop offset=".54" stop-color="#fff" stop-opacity="0"/></radialGradient><clipPath id="a"><path fill="#fff" d="M0 0h726v497H0z"/></clipPath></defs></svg>