<svg xmlns="http://www.w3.org/2000/svg" width="1040" height="640" fill="none"><mask id="b" width="1040" height="695" x="0" y="-55" maskUnits="userSpaceOnUse" style="mask-type:alpha"><path fill="url(#a)" d="M1039.07-55H0v694.814h1039.07V-55Z"/></mask><g stroke="#fff" mask="url(#b)"><path d="M6.084 443.636H-96.564v75.589H6.084v-75.589Zm102.653 0H6.089v75.589h102.648v-75.589Zm102.65 0H108.74v75.589h102.647v-75.589Z"/><path d="M314.034 443.636H211.386v75.589h102.648v-75.589Zm102.65 0H314.037v75.589h102.647v-75.589Zm102.653 0H416.69v75.589h102.647v-75.589Zm102.653 0H519.343v75.589H621.99v-75.589Zm102.651 0H621.993v75.589h102.648v-75.589Zm102.651 0H724.644v75.589h102.648v-75.589Z"/><path d="M929.938 443.636H827.29v75.589h102.648v-75.589Zm102.652 0H929.943v75.589h102.647v-75.589Zm102.65 0h-102.65v75.589h102.65v-75.589ZM6.084 519.206H-96.564v75.59H6.084v-75.59Zm102.653 0H6.089v75.59h102.648v-75.59Zm102.65 0H108.74v75.59h102.647v-75.59Z"/><path d="M314.034 519.206H211.386v75.59h102.648v-75.59Zm102.65 0H314.037v75.59h102.647v-75.59Zm102.653 0H416.69v75.59h102.647v-75.59Zm102.653 0H519.343v75.59H621.99v-75.59Zm102.651 0H621.993v75.59h102.648v-75.59Zm102.651 0H724.644v75.59h102.648v-75.59Zm102.648 0H827.292v75.59H929.94v-75.59Zm102.65 0H929.943v75.59h102.647v-75.59Zm102.65 0h-102.65v75.59h102.65v-75.59ZM6.084 594.776H-96.564v75.59H6.084v-75.59Zm0-604.561H-96.564v75.59H6.084v-75.59Zm102.653 604.559H6.089v75.59h102.648v-75.59Zm0-604.559H6.089v75.59h102.648v-75.59Z"/><path d="M211.387 594.774H108.74v75.59h102.647v-75.59Zm0-604.559H108.74v75.59h102.647v-75.59Z"/><path d="M314.034 594.774H211.386v75.59h102.648v-75.59Zm0-604.559H211.386v75.59h102.648v-75.59Zm102.65 604.559H314.037v75.59h102.647v-75.59Zm0-604.559H314.037v75.59h102.647v-75.59Zm102.653 604.559H416.69v75.59h102.647v-75.59Zm0-604.559H416.69v75.59h102.647v-75.59ZM621.99 594.774H519.343v75.59H621.99v-75.59Zm0-604.559H519.343v75.59H621.99v-75.59Zm102.651 604.559H621.993v75.59h102.648v-75.59Zm0-604.559H621.993v75.59h102.648v-75.59Zm102.651 604.559H724.644v75.59h102.648v-75.59Zm0-604.559H724.644v75.59h102.648v-75.59ZM929.94 594.776H827.292v75.59H929.94v-75.59Z"/><path d="M929.938-9.785H827.29v75.59h102.648v-75.59Zm102.652 604.561H929.943v75.59h102.647v-75.59Zm0-604.561H929.943v75.59h102.647v-75.59Zm102.65 604.559h-102.65v75.59h102.65v-75.59Zm0-604.559h-102.65v75.59h102.65v-75.59ZM6.084 65.784H-96.564v75.59H6.084v-75.59Zm102.653-.001H6.089v75.59h102.648v-75.59Zm102.65 0H108.74v75.59h102.647v-75.59Z"/><path d="M314.034 65.783H211.386v75.59h102.648v-75.59Zm102.65 0H314.037v75.59h102.647v-75.59Zm102.653 0H416.69v75.59h102.647v-75.59Zm102.653 0H519.343v75.59H621.99v-75.59Zm102.651 0H621.993v75.59h102.648v-75.59Zm102.651 0H724.644v75.59h102.648v-75.59Zm102.648.001H827.292v75.59H929.94v-75.59Zm102.65 0H929.943v75.59h102.647v-75.59Zm102.65-.001h-102.65v75.59h102.65v-75.59ZM6.084 141.355H-96.564v75.59H6.084v-75.59Zm102.653 0H6.089v75.59h102.648v-75.59Z"/><path d="M211.387 141.355H108.74v75.59h102.647v-75.59Z"/><path d="M314.034 141.355H211.386v75.59h102.648v-75.59Zm102.65 0H314.037v75.59h102.647v-75.59Zm102.653 0H416.69v75.59h102.647v-75.59Zm102.653 0H519.343v75.59H621.99v-75.59Zm102.651 0H621.993v75.59h102.648v-75.59Zm102.651 0H724.644v75.59h102.648v-75.59Z"/><path d="M929.938 141.355H827.29v75.59h102.648v-75.59Zm102.652 0H929.943v75.59h102.647v-75.59Zm102.65 0h-102.65v75.59h102.65v-75.59ZM6.084 216.924H-96.564v75.59H6.084v-75.59Zm102.653 0H6.089v75.59h102.648v-75.59Zm102.65 0H108.74v75.59h102.647v-75.59Z"/><path d="M314.034 216.924H211.386v75.59h102.648v-75.59Zm102.65 0H314.037v75.59h102.647v-75.59Zm102.653 0H416.69v75.59h102.647v-75.59Zm102.653 0H519.343v75.59H621.99v-75.59Zm102.651 0H621.993v75.59h102.648v-75.59Zm102.651 0H724.644v75.59h102.648v-75.59Z"/><path d="M929.938 216.924H827.29v75.59h102.648v-75.59Zm102.652.001H929.943v75.59h102.647v-75.59Zm102.65-.001h-102.65v75.59h102.65v-75.59ZM6.084 292.496H-96.564v75.59H6.084v-75.59Zm102.653 0H6.089v75.59h102.648v-75.59Zm102.65 0H108.74v75.59h102.647v-75.59Z"/><path d="M314.034 292.496H211.386v75.59h102.648v-75.59Zm102.65 0H314.037v75.59h102.647v-75.59Zm102.653 0H416.69v75.59h102.647v-75.59Zm102.653 0H519.343v75.59H621.99v-75.59Zm102.651 0H621.993v75.59h102.648v-75.59Zm102.651 0H724.644v75.59h102.648v-75.59Zm102.648 0H827.292v75.59H929.94v-75.59Zm102.65 0H929.943v75.59h102.647v-75.59Zm102.65 0h-102.65v75.59h102.65v-75.59ZM6.084 368.064H-96.564v75.59H6.084v-75.59Zm102.653 0H6.089v75.59h102.648v-75.59Z"/><path d="M211.387 368.064H108.74v75.59h102.647v-75.59Z"/><path d="M314.034 368.064H211.386v75.59h102.648v-75.59Zm102.65 0H314.037v75.59h102.647v-75.59Zm102.653 0H416.69v75.59h102.647v-75.59Zm102.653 0H519.343v75.59H621.99v-75.59Zm102.651 0H621.993v75.59h102.648v-75.59Zm102.651 0H724.644v75.59h102.648v-75.59Z"/><path d="M929.938 368.064H827.29v75.59h102.648v-75.59Zm102.652 0H929.944v75.59h102.646v-75.59Zm102.65 0h-102.65v75.59h102.65v-75.59Z"/></g><defs><radialGradient id="a" cx="0" cy="0" r="1" gradientTransform="matrix(0 923.764 -1381.46 0 519.429 291.91)" gradientUnits="userSpaceOnUse"><stop stop-color="#fff" stop-opacity=".46"/><stop offset=".54" stop-color="#fff" stop-opacity="0"/></radialGradient></defs></svg>
